<svg width="400" height="580" viewBox="0 0 400 580" fill="none" xmlns="http://www.w3.org/2000/svg">
<path d="M187.052 32.7392C186.185 33.2526 176.079 43.5192 176.079 53.2724C176.079 63.0257 178.132 70.0519 184.132 70.7256C190.132 71.3994 190.131 71.3994 190.131 71.3994L187.725 83.0455L204.858 92.7988L219.744 83.8797L212.044 61.2611C212.044 61.2611 216.311 62.8011 218.878 61.7744C221.445 60.7478 222.824 56.8016 221.284 54.3953C219.744 51.9891 213.905 52.8553 213.905 52.8553L214.065 42.5887L204.986 32.643C204.986 32.643 193.5 27.6701 192.826 27.8626C192.153 28.0551 188.72 29.0497 188.72 29.0497L187.052 32.7392Z" fill="#FC9F5B"/>
<path d="M54.6678 98.1249C54.6678 98.1249 51.4274 89.7191 45.7487 87.8583C40.102 85.9654 33.9421 85.4521 33.9421 85.4521C33.9421 85.4521 19.216 82.2117 18.5422 84.0725C17.8685 85.9654 25.0551 89.0454 25.0551 89.0454C25.0551 89.0454 20.788 91.4516 19.4085 91.2591C18.0289 91.0987 2.98192 87.3129 2.27609 89.5587C1.60235 91.7724 16.8418 96.232 16.8418 96.232C16.8418 96.232 31.9209 95.5582 32.5946 96.3924C33.2683 97.2586 37.8883 110.445 38.4017 110.445C38.915 110.445 45.9412 107.525 48.3474 105.472C50.7216 103.451 54.6678 98.1249 54.6678 98.1249Z" fill="#FC9F5B"/>
<path d="M344.736 126.743C344.736 126.743 349.709 134.636 352.629 137.363C355.548 140.09 358.436 141.63 358.436 141.63C358.436 141.63 366.136 130.144 367.676 130.336C369.216 130.497 380.349 133.256 380.349 133.256L397.994 132.229C397.994 132.229 397.321 128.989 394.241 128.476C391.161 127.962 381.728 127.962 381.728 127.962L375.729 124.016C375.729 124.016 384.808 122.829 383.942 121.289C383.076 119.749 373.836 119.396 369.376 119.236C369.376 119.236 360.97 117.182 358.243 118.562C355.548 119.877 344.736 126.743 344.736 126.743Z" fill="#FC9F5B"/>
<path d="M77.6114 217.25C77.6114 217.25 77.5793 217.25 77.6114 217.25C69.7831 217.026 61.9869 210.577 54.3832 198.097C48.8008 188.953 45.4 179.713 45.3679 179.617C45.1754 179.104 45.432 178.558 45.9454 178.398C46.4587 178.205 47.0041 178.462 47.1645 178.975C47.2928 179.328 60.5111 214.844 77.6114 215.325C78.1568 215.325 78.5739 215.775 78.5418 216.32C78.5418 216.833 78.1247 217.25 77.6114 217.25Z" fill="#1A1A1A"/>
<path d="M323.143 218.79C322.886 218.79 322.629 218.694 322.437 218.469C322.084 218.084 322.116 217.475 322.501 217.122C341.654 199.989 354.52 174.002 354.648 173.745C354.873 173.264 355.45 173.072 355.931 173.296C356.413 173.521 356.605 174.098 356.381 174.58C356.252 174.836 343.227 201.144 323.784 218.533C323.624 218.726 323.367 218.79 323.143 218.79Z" fill="#1A1A1A"/>
<path d="M203.469 0.881134C207.222 0.656553 214.537 3.86486 218.419 10.5702C222.301 17.2756 227.082 28.9538 227.21 36.7179C227.338 44.4821 224.579 52.2462 221.146 53.6257L217.04 51.2195C217.04 51.2195 216.911 43.3271 206.324 32.0338C195.705 20.7406 195.255 25.6493 195.255 25.6493L188.967 25.2001C188.967 25.2001 178.701 24.6226 179.021 24.1735C179.374 23.7243 176.968 17.436 182.101 17.2114C187.235 16.9868 191.47 19.7139 191.47 19.7139C191.47 19.7139 190.796 9.6719 195.127 5.21235C199.458 0.752802 203.469 0.881134 203.469 0.881134Z" fill="#FC9F5B"/>
<path d="M198.463 18.9442C199.521 18.3988 200.773 18.0138 201.896 18.3988C203.083 18.8159 203.821 20.0992 203.981 21.3505C204.141 22.6017 203.853 23.853 203.5 25.0721C203.307 25.7779 203.083 26.5159 202.473 26.9329C201.671 27.4783 200.548 27.1896 199.81 26.58C197.34 24.5267 194.613 20.9655 198.463 18.9442Z" fill="white"/>
<path d="M183.839 36.8781C184.641 37.0706 185.507 37.4877 186.373 38.0972C188.427 39.5089 189.518 41.466 188.844 42.4285C188.17 43.3909 185.988 43.006 183.935 41.5943C183.037 40.9847 182.331 40.2468 181.882 39.5731" fill="white"/>
<path d="M186.919 37.3272C185.988 36.6855 184.994 36.2043 184.063 35.9476C183.55 35.8193 183.037 36.108 182.876 36.6214C182.748 37.1347 183.037 37.648 183.55 37.8084C184.256 38.0009 185.058 38.3859 185.796 38.8993C185.828 38.9314 185.86 38.9314 185.892 38.9634C185.315 38.9634 184.833 39.1238 184.577 39.4768C184.352 39.8297 184.32 40.2788 184.512 40.7922C184.512 40.7922 184.48 40.7922 184.48 40.7601C183.71 40.2147 183.069 39.6051 182.652 38.9634C182.363 38.5143 181.753 38.418 181.304 38.7068C180.855 38.9955 180.759 39.6051 181.047 40.0543C181.593 40.8884 182.395 41.6584 183.357 42.3322C184.833 43.3588 186.309 43.9042 187.496 43.9042C188.427 43.9042 189.164 43.5834 189.614 42.9738C190.64 41.5301 189.517 39.1559 186.919 37.3272Z" fill="#1A1A1A"/>
<path d="M221.502 14.9016C224.069 20.6765 226.154 25.6815 227.117 31.9056C228.079 38.1618 227.598 44.7709 224.678 50.3855C224.229 51.2517 223.716 52.0859 222.946 52.6634C222.176 53.2409 221.085 53.4654 220.219 53.0163C219.641 52.6954 219.256 52.118 218.871 51.5725C215.47 46.3751 212.07 41.1455 209.952 35.3385C211.171 36.0443 212.84 35.916 213.93 35.0177C215.021 34.1193 215.47 32.5152 215.021 31.1677C220.09 32.1944 221.662 27.7348 221.759 26.3552C222.047 21.0936 221.245 17.4041 220.09 12.7841L221.502 14.9016Z" fill="white"/>
<path d="M233.824 93.1199C233.824 93.1199 253.908 99.6327 267.159 111.6C280.409 123.599 293.531 148.591 296.739 166.269L297.766 167.424L344.928 126.903C344.928 126.903 346.404 131.138 352.917 137.395C355.612 139.993 362.606 144.357 362.606 144.357C362.606 144.357 359.59 148.944 357.344 151.992C356.029 153.789 360.649 154.27 360.649 154.27L341.688 182.022C341.688 182.022 321.475 207.945 316.342 212.052C311.209 216.158 297.606 226.778 286.312 221.42C275.019 216.062 262.571 200.181 262.571 200.181L253.395 240.125L251.598 244.873L264.592 325.722L298.055 527.429L285.959 525.824L258.881 522.777L235.268 456.653C235.268 456.653 221.569 417.159 216.082 397.3C210.596 377.44 201.485 346.159 201.485 346.159L202.64 391.813L204.468 517.643L178 522.167L169.081 523.996L155.189 457.391L137.607 366.307C137.607 366.307 127.79 297.81 127.79 280.228C127.79 262.647 129.843 236.178 129.843 236.178L136.934 180.931C136.934 180.931 108.636 205.828 94.2309 206.501C79.8577 207.175 73.2165 203.518 56.79 176.375C40.3634 149.201 31.4443 124.305 31.4443 124.305C31.4443 124.305 35.2943 123.631 39.7859 121.481L34.8131 111.664L46.8121 106.37L54.9612 98.4777L96.3163 151.447C96.3163 151.447 101.803 135.694 118.454 116.284C135.105 96.8736 161.156 89.1095 179.187 88.8849L187.625 83.6233L204.757 92.9915L219.836 84.0724L233.824 93.1199Z" fill="white"/>
<path d="M205.017 93.1843L184.965 109.547C184.965 109.547 190.259 122.893 193.691 126.839C197.124 130.786 204.471 140.25 204.471 140.25C204.471 140.25 212.011 134.892 216.791 127.706C221.572 120.519 225.133 113.204 225.133 113.204L205.017 93.1843Z" fill="#1A1A1A"/>
<path d="M251.667 244.905C251.667 244.905 245.539 245.547 232.834 247.215C166.101 255.877 129.847 236.178 129.847 236.178C129.847 236.178 127.794 262.679 127.794 280.228C127.794 297.81 137.611 366.307 137.611 366.307L155.193 457.391L169.117 524.06L178.036 522.231L204.504 517.707L202.676 391.878L201.521 346.223C201.521 346.223 210.664 377.504 216.118 397.364C221.605 417.223 235.304 456.717 235.304 456.717L258.917 522.841L285.995 525.889L298.091 527.493L264.628 325.786L251.667 244.905Z" fill="#FC9F5B"/>
<path d="M244.215 346.897C248.129 360.34 251.658 373.879 255.059 387.45C258.428 401.021 261.668 414.625 264.748 428.292C267.828 441.927 270.78 455.595 273.571 469.326C276.33 483.026 278.993 496.79 281.207 510.617C277.293 497.174 273.763 483.635 270.363 470.064C266.994 456.493 263.753 442.89 260.673 429.222C257.594 415.587 254.642 401.92 251.851 388.188C249.091 374.457 246.461 360.725 244.215 346.897Z" fill="white"/>
<path d="M60.412 105.344C60.412 105.344 53.5141 108.616 64.1978 124.113C102.762 180.098 111.328 165.885 111.328 165.885L60.412 105.344Z" fill="#FC9F5B"/>
<path d="M280.188 178.397C280.188 178.397 287.214 185.584 305.02 172.109C359.208 131.075 344.514 128.444 344.514 128.444L280.188 178.397Z" fill="#FC9F5B"/>
<path d="M233.435 92.6709L231.542 97.74C231.542 97.74 249.476 103.964 269.56 123.759C288.714 142.656 291.922 172.911 291.922 172.911L297.28 167.649C297.28 167.649 288.939 136.368 277.068 122.091C265.229 107.846 245.466 95.9755 233.435 92.6709Z" fill="#FC9F5B"/>
<path d="M215.472 87.2809L231.546 97.74L233.824 93.12L219.739 83.9122L215.472 87.2809Z" fill="#FC9F5B"/>
<path d="M179.729 92.4469L190.637 85.5811L187.718 83.0786L179.151 88.4365L179.729 92.4469Z" fill="#FC9F5B"/>
<path d="M101.511 156.484C101.511 156.484 114.408 130.657 130.963 116.637C159.389 92.5424 179.697 92.4462 179.697 92.4462L179.12 88.917C179.12 88.917 150.438 89.0775 130.707 105.119C124.547 110.156 99.8747 134.571 95.7681 150.773L101.511 156.484Z" fill="#FC9F5B"/>
<path d="M209.603 106.275L212.972 100.115L205.079 91.8372L195.422 100.243L198.599 106.146L193.882 128.187L204.373 141.694L213.838 133L209.603 106.275Z" fill="#FC9F5B"/>
<path d="M260.193 211.282L267.893 240.83L264.299 238.905L253.68 238.392L260.193 211.282Z" fill="white"/>
<path d="M267.894 241.794C267.733 241.794 267.573 241.762 267.445 241.665L264.044 239.837L253.617 239.323C253.328 239.323 253.071 239.163 252.879 238.938C252.718 238.714 252.654 238.425 252.718 238.136L259.231 211.026C259.328 210.609 259.713 210.288 260.162 210.288C260.611 210.288 260.996 210.577 261.092 210.994L268.792 240.575C268.888 240.96 268.76 241.345 268.439 241.569C268.311 241.73 268.118 241.794 267.894 241.794ZM254.9 237.495L264.365 237.944C264.493 237.944 264.653 237.976 264.782 238.072L266.418 238.97L260.258 215.261L254.9 237.495Z" fill="#1A1A1A"/>
<path d="M362.894 144.742C362.701 144.742 362.477 144.677 362.316 144.549C361.899 144.228 361.835 143.651 362.124 143.234C362.252 142.624 361.033 140.507 360.455 139.897C360.134 139.672 359.974 139.223 360.102 138.806C360.263 138.293 360.808 138.036 361.322 138.197C362.124 138.453 363.535 140.956 363.856 142.079C364.145 143.041 364.081 143.811 363.664 144.357C363.471 144.613 363.182 144.742 362.894 144.742Z" fill="#1A1A1A"/>
<path d="M206.298 262.872L203.379 247.055C203.347 246.927 203.315 246.798 203.251 246.702C202.994 246.317 177.488 207.272 165.681 167.04C158.623 143.042 155.864 124.337 154.773 112.884C153.586 100.468 154.067 93.6659 154.067 93.5697C154.099 93.2488 153.939 92.928 153.682 92.7355C153.586 92.6713 150.955 90.8105 146.72 92.7355C142.549 94.6284 141.908 97.7405 141.876 97.9009C141.876 97.933 141.876 97.9971 141.876 98.0613C141.876 98.4142 140.849 134.123 155.8 181.509C163.628 206.31 176.493 227.356 185.894 240.606C196.096 254.98 204.566 263.642 204.662 263.738C204.855 263.931 205.111 264.027 205.336 264.027C205.496 264.027 205.625 263.995 205.785 263.931C206.17 263.706 206.395 263.289 206.298 262.872Z" fill="#1A1A1A"/>
<path d="M314.578 560.603C314.867 560.603 315.123 560.57 315.412 560.538C316.471 560.346 317.914 559.704 318.781 557.651C319.198 556.624 319.166 555.598 318.717 554.571C318.107 553.223 316.663 551.908 314.417 550.689C316.599 550.657 318.588 550.143 320.192 548.924C321.829 547.705 322.599 545.267 322.021 543.021C320.898 538.722 316.086 537.631 314.064 537.374C306.557 536.38 294.654 538.337 291.318 538.946L287.885 527.236L297.959 528.423C297.991 528.423 298.023 528.423 298.087 528.423C298.344 528.423 298.6 528.327 298.793 528.134C299.018 527.91 299.082 527.621 299.05 527.3L252.722 244.745C252.625 244.231 252.144 243.878 251.631 243.942C251.117 244.039 250.765 244.52 250.829 245.033L296.964 526.338L269.886 523.129L193.207 275.801C193.207 275.769 193.175 275.737 193.175 275.705C193.175 275.673 193.175 275.673 193.143 275.641C193.111 275.608 193.111 275.576 193.079 275.544C193.047 275.48 192.983 275.416 192.951 275.384C192.919 275.352 192.887 275.32 192.822 275.288C192.79 275.256 192.726 275.224 192.694 275.224C192.662 275.191 192.598 275.191 192.566 275.191H192.534C192.502 275.191 192.437 275.159 192.405 275.159C192.373 275.159 192.341 275.159 192.309 275.159C192.277 275.159 192.277 275.159 192.245 275.159L162.793 276.763C162.247 276.796 161.862 277.245 161.894 277.79C161.926 278.303 162.344 278.688 162.857 278.688C162.889 278.688 162.889 278.688 162.921 278.688L169.594 278.336C169.562 280.132 169.851 287.094 175.145 293.479C175.979 294.505 176.877 295.532 177.743 296.527C182.909 302.43 187.785 308.045 186.406 316.514C185.989 318.985 185.411 321.487 184.866 323.926C183.037 331.786 181.176 339.935 184.962 347.924C186.342 350.843 188.299 353.827 190.32 356.939C195.421 364.735 201.196 373.59 201.934 386.456L202.479 428.26C200.298 425.436 196.223 420.271 191.571 414.464C184.545 405.705 180.374 401.246 177.102 401.053C176.171 400.989 175.337 401.342 174.663 401.984C170.781 405.866 175.177 414.272 178.898 418.635C179.765 419.662 180.535 420.528 181.24 421.266C183.583 423.832 184.866 425.276 185.379 428.42C185.54 429.383 185.54 430.409 185.572 431.532C185.636 435.254 185.732 439.874 191.122 445.392C193.047 447.381 194.876 448.953 196.448 450.333C200.17 453.573 202.512 455.627 202.897 459.541L203.667 516.905L179.059 521.557C178.674 519.857 178.032 517.034 177.166 513.216C176.781 511.612 176.396 509.815 175.947 507.858C176.556 507.698 177.134 507.409 177.647 507.024C178.642 506.254 179.316 505.131 179.476 503.88C179.636 502.628 179.315 501.377 178.546 500.35L176.749 497.976C173.926 494.287 171.936 489.988 170.91 485.464L170.493 483.507C170.172 482.095 170.204 480.651 170.589 479.336C170.942 478.117 171.327 477.796 171.487 477.7C172.546 477.09 173.958 478.309 175.851 480.138C177.679 481.903 179.957 484.084 182.01 482.288C184.673 479.978 182.428 474.074 174.728 463.23C173.091 460.92 170.749 457.68 167.766 453.638C164.269 448.857 161.894 443.531 160.707 437.724C156.633 417.865 153.168 399.674 150.377 383.664C150.312 383.279 150.537 383.087 150.665 383.023C150.762 382.958 151.05 382.83 151.371 383.023C154.772 385.397 156.922 384.563 158.109 383.44C160.579 381.13 158.301 375.515 156.119 370.061C154.932 367.077 153.424 363.388 153.809 362.265C154.194 361.142 154.547 361.142 155.895 361.27C157.114 361.367 158.782 361.495 160.547 360.244C163.916 357.837 162.023 351.485 153.97 338.395C153.296 337.304 152.654 336.213 152.013 335.155C144.89 323.059 140.88 309.199 140.431 295.083C139.276 258.861 143.286 241.825 143.35 241.633C143.479 241.151 143.19 240.67 142.741 240.51L131.191 236.339C131.255 235.825 130.902 235.344 130.389 235.248C129.875 235.152 129.362 235.537 129.298 236.05C129.298 236.05 129.298 236.082 129.298 236.114C129.073 236.275 128.945 236.531 128.913 236.788C128.913 236.884 128.688 239.836 128.432 244.392C128.079 248.53 127.726 254.177 127.565 261.139C127.277 267.588 127.084 274.357 127.084 280.196C127.084 283.918 127.533 289.982 128.239 297.2C128.913 308.365 130.036 320.814 131.897 334.417C140.014 394.38 168.086 523.258 168.375 524.573C168.471 525.022 168.856 525.343 169.306 525.343C169.37 525.343 169.434 525.343 169.498 525.311L177.647 523.771C178.161 528.455 178.802 535.77 178.578 538.241C177.615 536.572 175.851 533.941 173.252 531.728C169.979 528.969 166.45 527.525 164.236 528.07C163.21 528.327 162.472 528.969 162.087 529.963C161.798 530.733 161.83 531.567 162.215 532.369C162.664 533.3 163.595 534.23 164.814 535.129C160.579 533.781 157.595 533.492 155.767 534.262C154.772 534.679 154.098 535.417 153.809 536.412C153.136 538.786 153.906 540.326 154.708 541.192C156.408 543.053 160.001 543.983 165.359 543.983C166.065 543.983 166.835 543.951 167.605 543.919C162.311 546.005 155.093 548.668 145.757 551.844C138.025 554.475 137.928 557.651 138.057 558.549C138.281 559.897 139.468 560.763 141.137 560.763H141.907C150.377 560.859 157.627 560.859 163.627 560.859C169.658 560.859 174.439 560.827 178 560.795C208.351 560.506 209.474 559.319 210.051 558.71C211.816 556.817 210.597 550.913 208.383 541.385C207.484 537.471 206.618 533.781 206.362 531.407C206.137 529.161 205.688 517.932 205.688 517.643L204.918 460.375C204.95 460.279 204.95 460.182 204.95 460.086L204.693 444.943L203.923 387.193C203.923 387.129 203.955 387.065 203.955 386.969L203.699 356.362C206.843 367.238 211.912 384.851 215.441 397.588C220.863 417.255 234.498 456.621 234.627 457.006L236.07 461.017C248.07 496.083 257.887 522.103 258.24 523.129C259.972 528.712 268.699 556.303 272.677 558.87C274.634 560.153 284.869 565.672 295.007 570.484C307.231 576.323 315.219 579.275 318.845 579.275C319.262 579.275 319.583 579.243 319.871 579.179C320.706 578.986 321.091 578.505 321.283 578.184C322.181 576.548 321.379 572.922 309.06 558.581C311.113 559.929 313.006 560.603 314.578 560.603ZM173.252 541.481C171.712 541.673 169.851 541.866 167.926 541.962C161.702 542.283 157.435 541.545 155.895 539.877C155.221 539.139 155.061 538.176 155.414 536.925C155.542 536.476 155.799 536.219 156.248 536.027C156.601 535.899 157.114 535.77 157.948 535.77C159.713 535.77 162.825 536.348 168.247 538.561C170.428 539.428 172.45 540.39 174.022 541.16C173.797 541.256 173.541 541.385 173.252 541.481ZM171.68 536.797C165.648 534.198 164.108 532.401 163.691 531.567C163.499 531.15 163.531 530.862 163.627 530.701C163.787 530.316 164.044 530.091 164.461 529.963C164.654 529.931 164.846 529.899 165.071 529.899C166.739 529.899 169.37 531.182 171.776 533.204C173.829 534.936 175.337 537.054 176.268 538.561C175.016 538.144 173.38 537.503 171.68 536.797ZM179.989 530.669C179.733 527.621 179.444 524.669 179.283 523.45L203.57 518.862C203.667 521.429 203.955 527.685 204.148 530.573L179.989 530.669ZM264.4 536.412C263.149 532.786 261.769 528.648 260.293 523.964L285.735 526.979L289.521 539.909L264.4 536.412ZM293.146 540.583C297.638 539.845 307.455 538.465 313.744 539.299C318.492 539.941 319.775 542.219 320.096 543.534C320.545 545.203 319.872 546.743 319.005 547.384C315.027 550.336 307.744 548.058 302.322 545.588C298.568 543.887 295.168 541.866 293.146 540.583ZM298.921 547.481C300.814 547.898 303.573 548.571 307.199 549.758C314.546 552.165 316.471 554.314 316.952 555.373C317.209 555.918 317.209 556.4 316.984 556.913C316.567 557.94 315.957 558.485 315.091 558.613C314.899 558.645 314.738 558.645 314.546 558.645C311.241 558.645 305.819 554.314 301.584 550.336C300.654 549.373 299.755 548.379 298.921 547.481Z" fill="#1A1A1A"/>
<path d="M189.1 208.907C191.262 208.907 193.014 207.155 193.014 204.993C193.014 202.831 191.262 201.079 189.1 201.079C186.938 201.079 185.186 202.831 185.186 204.993C185.186 207.155 186.938 208.907 189.1 208.907Z" fill="#1A1A1A"/>
<path d="M189.102 209.87C186.407 209.87 184.225 207.688 184.225 204.993C184.225 202.298 186.407 200.117 189.102 200.117C191.797 200.117 193.978 202.298 193.978 204.993C193.978 207.688 191.765 209.87 189.102 209.87ZM189.102 202.042C187.465 202.042 186.15 203.357 186.15 204.993C186.15 206.63 187.465 207.945 189.102 207.945C190.738 207.945 192.053 206.63 192.053 204.993C192.053 203.357 190.706 202.042 189.102 202.042Z" fill="#1A1A1A"/>
<path d="M189.935 186.386C192.096 186.386 193.849 184.634 193.849 182.472C193.849 180.31 192.096 178.558 189.935 178.558C187.773 178.558 186.021 180.31 186.021 182.472C186.021 184.634 187.773 186.386 189.935 186.386Z" fill="#1A1A1A"/>
<path d="M189.936 187.349C187.241 187.349 185.059 185.167 185.059 182.472C185.059 179.777 187.241 177.596 189.936 177.596C192.631 177.596 194.812 179.777 194.812 182.472C194.812 185.167 192.631 187.349 189.936 187.349ZM189.936 179.521C188.299 179.521 186.984 180.836 186.984 182.472C186.984 184.109 188.299 185.424 189.936 185.424C191.572 185.424 192.887 184.109 192.887 182.472C192.887 180.836 191.572 179.521 189.936 179.521Z" fill="#1A1A1A"/>
<path d="M329.911 144.164C328.082 144.164 326.574 145.672 326.574 147.5C326.574 149.329 328.082 150.837 329.911 150.837C331.74 150.837 333.247 149.329 333.247 147.5C333.247 145.672 331.74 144.164 329.911 144.164Z" fill="#1A1A1A"/>
<path d="M337.032 138.196C335.203 138.196 333.695 139.704 333.695 141.533C333.695 143.362 335.203 144.87 337.032 144.87C338.861 144.87 340.369 143.362 340.369 141.533C340.369 139.704 338.861 138.196 337.032 138.196Z" fill="#1A1A1A"/>
<path d="M249.196 150.804L226.962 147.209L225.575 155.793L247.809 159.387L249.196 150.804Z" fill="#FC9F5B"/>
<path d="M66.8327 120.937C65.004 120.808 63.3998 122.188 63.2715 124.017C63.2073 124.915 63.4961 125.781 64.0736 126.455C64.6511 127.129 65.4531 127.546 66.3515 127.61C66.4477 127.61 66.5119 127.61 66.6081 127.61C67.4102 127.61 68.1802 127.321 68.7898 126.808C69.4635 126.23 69.8806 125.428 69.9448 124.53C70.0731 122.701 68.6614 121.097 66.8327 120.937Z" fill="#1A1A1A"/>
<path d="M61.3754 113.396C59.5146 113.268 57.9426 114.647 57.8142 116.476C57.7501 117.375 58.0388 118.241 58.6163 118.914C59.1938 119.588 59.9959 120.005 60.8942 120.069C60.9904 120.069 61.0546 120.069 61.1508 120.069C61.9529 120.069 62.7229 119.781 63.3325 119.267C64.0063 118.69 64.4233 117.888 64.4875 116.99C64.5837 115.129 63.2042 113.525 61.3754 113.396Z" fill="#1A1A1A"/>
<path d="M187.051 55.038C186.794 55.038 186.57 54.9418 186.377 54.7814C183.779 52.2468 183.586 50.001 184.26 48.7177C184.837 47.6589 185.992 47.1777 187.243 47.4344C187.789 47.5627 188.078 47.4023 188.238 47.2739C189.072 46.6323 189.329 44.8035 189.361 44.226C189.393 43.6806 189.842 43.2956 190.356 43.3277C190.901 43.3598 191.286 43.809 191.254 44.3223C191.254 44.6431 191.061 47.5306 189.361 48.8139C188.623 49.3593 187.725 49.5518 186.762 49.3273C186.538 49.2631 186.088 49.231 185.896 49.616C185.543 50.2577 185.928 51.7335 187.661 53.4018C188.046 53.7868 188.046 54.3964 187.693 54.7493C187.532 54.9418 187.276 55.038 187.051 55.038Z" fill="#1A1A1A"/>
<path d="M202.186 49.1734C202.856 48.2154 201.753 46.2854 199.721 44.8628C197.688 43.4401 195.497 43.0635 194.827 44.0215C194.156 44.9795 195.26 46.9094 197.292 48.3321C199.324 49.7547 201.515 50.1314 202.186 49.1734Z" fill="white"/>
<path d="M202.797 46.6961C202.251 45.7657 201.353 44.8353 200.262 44.0653C199.171 43.2953 197.984 42.782 196.893 42.5895C195.129 42.2687 194.327 43.0066 194.006 43.4557C193.685 43.9049 193.3 44.8995 194.166 46.4715C194.712 47.402 195.61 48.3324 196.701 49.1024C198.177 50.129 199.653 50.6744 200.84 50.6744C201.77 50.6744 202.508 50.3536 202.957 49.744C203.31 49.2628 203.695 48.2682 202.797 46.6961ZM195.867 45.5091C195.546 44.9636 195.546 44.6107 195.61 44.5466C195.642 44.5145 195.803 44.4182 196.124 44.4182C196.252 44.4182 196.412 44.4182 196.605 44.4503C197.375 44.5786 198.337 44.9957 199.171 45.6053C199.203 45.6374 199.236 45.6374 199.268 45.6695C198.69 45.6695 198.209 45.8299 197.952 46.1828C197.728 46.5357 197.696 46.9849 197.888 47.4982C197.888 47.4982 197.856 47.4982 197.856 47.4661C196.99 46.9207 196.252 46.1828 195.867 45.5091Z" fill="#1A1A1A"/>
<path d="M204.341 43.9693C204.181 43.9693 204.053 43.9373 203.892 43.8731C199.304 41.531 198.438 36.2694 198.406 36.0448C198.31 35.5315 198.695 35.0182 199.208 34.954C199.721 34.8578 200.235 35.2428 200.299 35.7561C200.299 35.8202 201.069 40.2798 204.758 42.1406C205.24 42.3973 205.432 42.9748 205.175 43.4239C205.015 43.7769 204.662 43.9693 204.341 43.9693Z" fill="#1A1A1A"/>
<path d="M188.717 36.5584C187.658 36.5584 186.439 36.3979 185.156 35.9488C184.642 35.7884 184.386 35.2109 184.578 34.7296C184.738 34.2163 185.316 33.9596 185.797 34.1521C189.07 35.3071 191.733 34.12 191.765 34.088C192.246 33.8634 192.823 34.088 193.048 34.5692C193.273 35.0504 193.048 35.6279 192.567 35.8525C192.471 35.8846 190.963 36.5584 188.717 36.5584Z" fill="#1A1A1A"/>
<path d="M187.721 63.155C187.4 63.155 187.079 62.9946 186.887 62.7058C185.732 60.845 184.481 59.7863 183.261 59.6259C181.946 59.4654 180.951 60.3638 180.951 60.3958C180.566 60.7808 179.957 60.7488 179.604 60.3958C179.219 60.0109 179.251 59.4013 179.604 59.0484C179.668 58.9842 181.24 57.4763 183.486 57.765C185.347 57.9896 187.047 59.3371 188.523 61.7113C188.812 62.1604 188.651 62.77 188.202 63.0267C188.074 63.0908 187.881 63.155 187.721 63.155Z" fill="#1A1A1A"/>
<path d="M227.472 31.0717C225.515 20.6126 218.97 6.97727 211.399 2.22898C207.966 0.0794102 204.212 -0.530168 200.811 0.464407C197.346 1.49107 194.523 4.02563 192.791 7.65102C191.186 11.0197 190.609 15.8322 190.384 18.1422C186.31 16.2493 182.556 15.6397 180.182 16.7947C176.942 18.3668 177.712 22.5697 178.225 24.3984C177.615 25.5855 177.166 27.318 177.423 29.7563C177.872 33.9271 180.952 35.5312 183.326 35.9804C180.888 38.8358 178.963 41.8837 177.551 45.0599C175.466 49.7761 174.664 54.6527 175.209 59.1764C175.883 64.6627 178.482 69.026 182.171 70.7905C184.096 71.7209 186.214 72.0739 188.395 72.0739C188.524 72.0739 188.62 72.0739 188.748 72.0739L186.438 83.4313C186.342 83.9446 186.663 84.4579 187.176 84.5542C187.24 84.5542 187.304 84.5863 187.369 84.5863C187.818 84.5863 188.203 84.2654 188.299 83.8163L188.652 82.0517C188.684 81.9875 188.684 81.9234 188.716 81.8913L189.069 80.4796C190.16 77.4317 193.272 75.9559 196.544 74.3838C198.181 73.6138 199.721 72.8759 201.004 71.9134C204.084 69.6676 204.693 67.0047 204.726 66.8764C204.726 66.8443 204.726 66.8122 204.726 66.7801V66.7481C204.726 66.6839 204.726 66.6518 204.726 66.5876V66.5556C204.726 66.5235 204.726 66.4593 204.693 66.4272C204.693 66.3951 204.693 66.3951 204.661 66.3631C204.661 66.331 204.629 66.2668 204.597 66.2347C204.597 66.2347 204.597 66.2347 204.597 66.2027C204.565 66.1385 204.533 66.1064 204.501 66.0743L204.469 66.0422C204.437 66.0102 204.405 65.9781 204.373 65.946L204.341 65.9139C204.341 65.9139 204.341 65.9139 204.308 65.8818C204.276 65.8497 204.244 65.8497 204.212 65.8176C204.212 65.8176 204.18 65.8176 204.18 65.7856C204.116 65.7535 204.084 65.7535 204.02 65.7214H203.988C203.956 65.7214 203.891 65.6893 203.859 65.6893C203.827 65.6893 203.827 65.6893 203.795 65.6893C203.763 65.6893 203.699 65.6893 203.667 65.6893H203.635C203.571 65.6893 203.538 65.7214 203.474 65.7214H203.442C203.41 65.7214 203.346 65.7535 203.314 65.7856H203.282C203.153 65.8497 190.609 72.6834 182.941 69.026C179.893 67.5822 177.647 63.7002 177.07 58.9198C175.979 49.8403 180.792 39.8304 189.999 31.97C192.63 34.3441 195.871 33.6704 197.892 32.6437C199.175 34.9216 201.87 35.5312 203.731 35.4991C205.143 39.6058 208.672 40.6645 211.11 40.6645C211.27 40.6645 211.399 40.6645 211.559 40.6324C211.976 41.2099 212.458 41.8516 212.939 42.5574C212.105 43.2632 209.634 45.6374 209.313 49.359C209.025 52.6636 210.372 54.4923 211.591 55.1019C211.912 55.2623 212.233 55.3265 212.554 55.3265C212.971 55.3265 213.356 55.1982 213.645 54.9415C213.645 54.9415 213.677 54.9415 213.677 54.9094C215.217 53.7223 216.789 53.2732 218.265 53.594C219.58 53.8827 220.542 54.749 220.895 55.4548C221.377 56.3852 221.569 57.8931 220.96 59.1444C220.446 60.2352 219.387 60.941 217.88 61.2618C214.062 62.0318 212.714 60.171 212.618 60.0427C212.618 60.0106 212.586 60.0106 212.586 59.9785C212.554 59.9464 212.554 59.9144 212.522 59.8823C212.49 59.8502 212.49 59.8502 212.458 59.8181C212.425 59.786 212.425 59.786 212.393 59.7539C212.361 59.7219 212.329 59.7219 212.297 59.6898C212.265 59.6898 212.233 59.6577 212.233 59.6577C212.201 59.6577 212.169 59.6256 212.137 59.6256C212.105 59.6256 212.073 59.5935 212.04 59.5935C212.008 59.5935 211.976 59.5935 211.944 59.5935C211.912 59.5935 211.88 59.5935 211.848 59.5935C211.816 59.5935 211.784 59.5935 211.752 59.5935C211.72 59.5935 211.688 59.5935 211.655 59.5935C211.623 59.5935 211.591 59.5935 211.559 59.6256C211.527 59.6256 211.527 59.6256 211.495 59.6256C211.463 59.6256 211.431 59.6577 211.399 59.6577C211.367 59.6577 211.335 59.6898 211.303 59.6898C211.27 59.6898 211.27 59.7219 211.238 59.7219C211.206 59.7539 211.174 59.754 211.142 59.786C211.11 59.8181 211.11 59.8181 211.078 59.8502C211.046 59.8823 211.046 59.8823 211.014 59.9144C210.982 59.9464 210.982 59.9785 210.95 60.0106C210.95 60.0427 210.918 60.0748 210.918 60.0748C210.918 60.1069 210.885 60.1389 210.885 60.171C210.885 60.2031 210.853 60.2352 210.853 60.2673C210.853 60.2994 210.853 60.3314 210.853 60.3635C210.853 60.3956 210.853 60.4277 210.853 60.4598C210.853 60.4919 210.853 60.5239 210.853 60.556C210.853 60.5881 210.853 60.6202 210.853 60.6523C210.853 60.6844 210.853 60.7164 210.885 60.7485C210.885 60.7806 210.885 60.7806 210.918 60.8127L218.81 83.9446C218.938 84.3296 219.323 84.5863 219.708 84.5863C219.805 84.5863 219.901 84.5542 220.029 84.5221C220.542 84.3617 220.799 83.8163 220.639 83.3029L213.677 62.8981C214.35 63.1227 215.153 63.2831 216.147 63.2831C216.789 63.2831 217.495 63.2189 218.297 63.0585C220.96 62.5131 222.179 61.0373 222.724 59.8823C223.687 57.8931 223.27 55.7436 222.628 54.4602C222.532 54.2677 222.403 54.0752 222.275 53.8827C227.152 51.2198 229.397 41.4666 227.472 31.0717ZM191.732 24.6551C190.641 23.5642 187.882 21.1259 184.545 21.0297C182.684 20.9655 181.016 21.4788 179.765 22.5055C179.54 21.0297 179.604 19.233 181.016 18.5272C183.358 17.3722 189.229 18.848 195.165 23.2113C195.293 23.4038 195.454 23.5321 195.678 23.5963C195.742 23.6605 195.838 23.7246 195.903 23.7567C194.299 23.8209 192.63 24.3342 191.732 24.6551ZM201.261 25.9705C199.945 24.623 198.534 23.3717 197.09 22.2809C197.122 22.1526 197.186 22.0242 197.218 21.928C197.667 20.8692 198.405 19.9709 199.271 19.4897C200.041 19.0405 200.843 18.9443 201.485 19.233C202.127 19.5218 202.608 20.1313 202.833 21.0297C203.057 21.9922 202.929 23.1472 202.48 24.2059C202.223 24.8476 201.774 25.4571 201.261 25.9705ZM202.64 27.3179C203.314 26.6442 203.859 25.8421 204.276 24.9117C204.437 24.4946 204.597 24.0776 204.693 23.6605C207.003 25.1042 212.939 29.2108 216.307 35.7879C219.997 42.9424 219.612 47.434 218.81 49.744C217.623 45.862 214.896 41.8195 213.003 39.317C212.971 39.2208 212.939 39.1566 212.875 39.0604C212.778 38.8999 210.276 35.435 208.64 33.51C207.1 31.6171 204.79 29.2429 202.64 27.3179ZM220.831 52.6636C220.542 52.4711 220.222 52.2786 219.869 52.1503C221.12 50.0649 223.045 44.6428 218.04 34.9216C216.693 32.3229 215.024 30.0771 213.292 28.2484C214.286 24.623 217.045 22.4734 217.077 22.4413C217.495 22.1205 217.591 21.5109 217.27 21.0938C216.949 20.6768 216.34 20.5805 215.923 20.9013C215.794 20.9976 213.099 23.0509 211.752 26.7084C208.672 23.7888 205.784 22.0563 204.886 21.543C204.854 21.1901 204.822 20.8692 204.726 20.5484C204.373 19.0726 203.506 17.9818 202.287 17.4364C201.646 17.1476 200.94 17.0834 200.234 17.1476C199.047 13.7789 200.394 9.961 200.394 9.89683C200.587 9.3835 200.298 8.83809 199.817 8.67768C199.303 8.48518 198.758 8.74184 198.598 9.25517C198.533 9.44767 197.026 13.7789 198.405 17.7893C198.373 17.7893 198.373 17.8214 198.341 17.8214C197.122 18.5272 196.127 19.6822 195.518 21.1259C194.427 20.388 193.336 19.7143 192.277 19.1047C192.406 17.5005 192.887 12.0143 194.555 8.51726C196.031 5.4052 198.469 3.19147 201.357 2.35731C204.276 1.49106 207.388 2.03648 210.404 3.92938C216.789 7.90768 223.494 20.003 225.612 31.4888C226.542 36.5579 226.478 41.627 225.419 45.7336C224.425 49.2949 222.788 51.8294 220.831 52.6636Z" fill="#1A1A1A"/>
<path d="M209.504 105.279H199.109C198.564 105.279 198.146 105.696 198.146 106.242C198.146 106.787 198.564 107.204 199.109 107.204H209.504C210.049 107.204 210.466 106.787 210.466 106.242C210.466 105.696 210.049 105.279 209.504 105.279Z" fill="white"/>
<path d="M397.32 128.925C395.619 127.802 390.293 127.577 384.486 127.417C383.331 127.385 382.433 127.353 381.952 127.32C381.182 127.256 379.449 126.037 377.781 124.722C380.701 124.401 384.326 123.695 384.936 122.123C385.064 121.77 385.192 121.032 384.454 120.262C382.369 118.081 370.755 118.081 367.258 118.113C367.226 118.113 367.162 118.113 367.129 118.113C363.761 117.214 359.686 117.054 355.612 118.53C349.965 120.583 344.8 125.62 344.318 126.101L297.83 165.916C297.092 163.221 295.392 157.254 292.793 150.196L292.28 148.527C292.215 148.367 292.151 148.239 292.023 148.142C288.59 139.159 283.81 128.86 277.842 121.513C263.982 104.445 247.363 97.4832 246.818 97.2586L233.888 91.8045L220.253 82.9496C219.932 82.7571 219.515 82.7571 219.194 82.9496L204.949 92.0612L187.817 82.7571C187.528 82.5967 187.175 82.5967 186.855 82.7892L178.834 87.5375C165.519 88.2112 152.847 91.6762 141.168 97.8682C131.03 103.226 121.726 110.669 114.251 119.364C108.796 125.716 104.626 131.908 101.578 137.074C101.481 137.17 101.385 137.266 101.353 137.362L101.032 138.036C98.0486 143.17 96.2199 147.212 95.3857 149.201L61.2172 104.798C61.1851 104.766 61.1851 104.734 61.153 104.702L55.9235 97.9003C55.5385 96.7453 53.2285 90.7137 45.9136 86.992C42.224 85.1312 38.6949 84.6821 35.6791 84.8104C34.9412 84.6821 31.3158 84.0404 27.53 83.5592C18.675 82.4042 17.6805 83.1421 17.1992 83.495C16.8784 83.7196 16.6859 84.0404 16.6538 84.4254C16.4934 85.7408 17.7767 86.96 20.7925 88.3075C21.4984 88.6283 22.1721 88.885 22.7817 89.1416C20.9529 90.0079 18.9638 90.6816 17.1992 90.457C16.3009 90.3287 15.0176 90.072 13.5418 89.7512C7.51014 88.5 2.76185 87.6658 0.868943 89.0774C0.355614 89.4624 0.0668622 90.0079 0.00269601 90.6495C-0.0293871 91.0987 0.227278 91.4837 0.644358 91.612L16.3972 97.0982C16.5255 97.1303 16.6217 97.1624 16.7501 97.1624C23.3271 96.8736 30.7062 96.8736 32.0216 97.3549C32.5991 98.2532 34.4278 102.584 36.032 106.659C32.952 109.514 32.6633 110.637 32.8558 111.407C32.9199 111.664 33.0483 111.889 33.2408 112.049L34.6524 114.712C33.7862 115.61 29.5191 120.294 29.6475 123.182C29.6795 123.791 29.9041 124.337 30.257 124.722C30.9629 126.262 36.6737 138.55 43.5394 152.377C50.1806 165.724 55.6989 176.119 60.0622 183.434L60.2868 183.851C60.3189 183.947 60.3831 184.011 60.4793 184.075C62.4043 187.284 64.1368 189.882 65.5805 191.84C71.4517 199.732 76.6171 204.224 82.36 206.437C84.9908 207.432 87.7179 207.945 90.6053 207.945C95.3857 207.945 100.615 206.566 106.326 203.774C116.946 198.609 127.886 189.786 135.49 183.017L129.073 236.082C129.041 236.467 129.201 236.82 129.522 237.013C129.907 237.237 139.307 242.788 159.135 246.702C169.016 248.659 182.652 250.359 200.009 250.359C214.639 250.359 231.899 249.14 251.823 245.867C251.887 245.867 251.951 245.835 251.983 245.835C252.015 245.835 252.015 245.803 252.047 245.803C252.079 245.803 252.112 245.771 252.144 245.739C252.176 245.739 252.176 245.707 252.208 245.707C252.24 245.675 252.272 245.675 252.304 245.643C252.336 245.643 252.336 245.611 252.368 245.611C252.4 245.579 252.432 245.547 252.432 245.515L252.465 245.482C252.497 245.45 252.529 245.386 252.529 245.354V245.322C252.561 245.258 252.561 245.226 252.593 245.162L263.437 202.684C267.094 207.111 278.099 219.688 287.243 222.896C289.777 223.762 292.151 224.211 294.461 224.211C302.546 224.211 309.861 219.078 319.711 210.031C324.94 205.218 333.635 194.535 345.505 178.268C354.104 166.494 361.354 155.907 361.804 155.265C362.381 154.591 362.702 153.789 362.67 152.891C362.606 151.158 361.354 149.522 360.617 148.752L363.697 144.357C363.921 144.036 363.985 143.587 363.793 143.266C363.985 142.72 363.953 141.437 361.643 138.165C363.985 134.603 366.295 131.523 367.129 131.299C367.964 131.17 372.872 132.197 379.096 133.833C379.481 133.93 379.866 133.994 380.284 133.962L398.571 133.288C398.988 133.288 399.341 132.999 399.469 132.582C399.501 132.39 399.886 130.657 397.32 128.925ZM383.043 121.513C382.241 122.091 379.096 122.733 375.952 122.957C375.856 122.957 375.792 122.989 375.728 123.021C374.252 121.834 372.872 120.711 371.91 120.102L371.878 120.07C377.107 120.198 382.048 120.711 383.043 121.513ZM234.049 93.9541L245.31 98.7024C242.904 107.654 239.022 120.904 237.642 122.733C236.487 124.273 232.477 124.241 229.814 124.241C228.37 124.241 227.311 124.241 226.67 124.433C225.162 124.882 224.969 126.968 226.06 131.395C226.317 132.39 225.868 133.416 225.001 133.962C219.291 137.395 214.029 138.678 210.66 139.159C209.409 139.32 208.318 139.416 207.42 139.448C214.414 134.122 220.927 125.075 226.83 112.498C230.744 104.124 233.215 96.617 234.049 93.9541ZM219.74 84.9066L232.316 93.0878C231.61 95.3657 229.14 103.034 225.033 111.728L206.554 93.3445L219.74 84.9066ZM224.135 113.557C219.451 123.118 212.874 133.48 204.629 139.031C202.607 136.881 195.228 128.54 188.908 116.027C187.849 113.942 186.919 111.889 186.085 109.867L204.949 94.4674L224.135 113.557ZM187.4 84.6821L203.313 93.3124L185.347 108.006C181.721 98.6703 180.47 91.0987 180.181 88.9491L187.4 84.6821ZM168.599 90.5533C171.808 90.0079 175.048 89.6549 178.32 89.4624C178.802 92.7349 180.791 104.253 187.208 116.893C193.015 128.411 199.752 136.464 202.511 139.544C192.02 140.282 177.23 131.973 176.267 130.304C176.011 129.502 177.775 125.941 178.738 124.048C180.278 120.936 181.144 119.139 180.951 118.016C180.887 117.631 180.663 117.278 180.31 117.054C179.251 116.348 177.23 116.797 173.797 117.663C172.096 118.081 169.594 118.69 168.76 118.562C167.829 116.508 167.958 103.034 168.599 90.5533ZM44.2132 109.033C49.924 105.889 53.5494 101.847 55.0573 99.9536L59.1639 105.279C55.0573 109.643 49.0256 114.487 42.9299 118.305C41.7749 119.043 40.7161 119.653 39.7536 120.198L35.5828 112.37C37.187 112.209 39.9141 111.407 44.2132 109.033ZM18.8355 84.9708C19.6696 84.8425 21.8834 84.8104 27.4658 85.5162C28.3 85.6125 29.1341 85.7408 29.9362 85.8691C29.1341 86.0937 28.4925 86.3504 28.0433 86.5108C27.2733 86.7995 26.3429 87.2808 25.2842 87.8583C25.22 87.8904 25.1879 87.9225 25.1237 87.9545C22.3325 87.0562 19.6375 85.7408 18.8355 84.9708ZM24.3538 95.0449C20.985 95.077 17.6484 95.2053 16.8463 95.2374L2.76184 90.3287C4.94349 89.9437 10.1409 91.0024 13.1247 91.6441C14.6326 91.9649 15.948 92.2216 16.9105 92.382C20.1509 92.8312 23.4875 91.0345 26.1825 89.5587C27.1771 89.0133 28.0112 88.5641 28.685 88.3395C30.0004 87.8583 32.4387 86.992 35.5187 86.7995C35.647 86.8316 35.8074 86.7995 35.9357 86.7675C38.6307 86.6391 41.7749 87.0883 45.0794 88.7566C51.1431 91.8366 53.4531 96.7774 54.0306 98.2532C53.036 99.5686 49.3786 104.028 43.3469 107.397C41.6465 108.327 40.267 109.001 39.0799 109.45L38.0853 106.659C37.4757 105.119 34.4599 97.3228 33.4974 96.1357C33.0804 95.5903 32.567 94.9807 24.3538 95.0449ZM349.805 168.964C349.644 168.996 349.484 169.093 349.355 169.221C349.227 169.349 337.838 181.284 327.892 186.129C324.844 187.637 321.892 188.92 319.294 190.043C311.979 193.251 306.685 195.561 305.177 199.668C304.439 201.657 304.952 202.876 305.53 203.582C306.525 204.769 308.449 205.218 310.824 204.801C311.69 204.641 312.492 204.48 313.198 204.32C315.861 203.742 316.919 203.582 317.401 204.448C317.657 204.897 317.657 205.443 317.401 206.02C316.663 207.817 314 209.71 310.567 210.769C309.476 211.122 308.353 211.41 307.262 211.731C302.45 213.079 297.862 214.33 297.573 217.955C297.445 219.463 297.99 220.714 299.177 221.581C295.52 222.575 291.895 222.447 287.916 221.067C277.521 217.442 263.886 200.149 263.758 199.989C263.726 199.925 259.266 194.599 255.801 189.979C250.764 183.338 247.556 183.113 246.657 183.177C245.952 183.241 244.957 183.594 244.347 184.878C242.807 188.022 246.561 193.315 250.187 198.417C251.855 200.791 254.165 204.031 254.069 204.929C253.972 205.667 253.748 206.919 253.459 208.394C252.272 214.426 251.374 219.591 252.721 221.966C253.844 223.955 254.903 224.885 255.737 225.366L250.957 244.135C208.094 251.161 177.679 248.434 159.712 244.937C144.826 242.018 134.848 237.847 131.126 235.761L134.367 208.972C135.072 209.421 136.067 209.806 137.511 209.87C137.607 209.87 137.671 209.87 137.767 209.87C142.035 209.87 143.735 203.71 145.05 193.797C146.366 184.075 145.82 173.007 145.82 172.911C145.82 172.846 145.82 172.814 145.788 172.75V172.718C145.788 172.686 145.756 172.622 145.756 172.59C145.756 172.558 145.756 172.558 145.724 172.526C145.692 172.493 145.692 172.461 145.66 172.397C145.66 172.397 145.66 172.365 145.628 172.365C145.596 172.333 145.564 172.269 145.532 172.237C145.532 172.237 145.532 172.237 145.499 172.205C145.467 172.173 145.435 172.141 145.403 172.108L145.371 172.076C145.339 172.044 145.275 172.012 145.211 172.012C145.211 172.012 145.211 172.012 145.179 172.012C145.147 171.98 145.082 171.98 145.05 171.98C145.018 171.98 145.018 171.98 144.986 171.98C144.954 171.98 144.89 171.98 144.858 171.98H144.826C144.762 171.98 144.729 171.98 144.665 172.012C144.601 172.012 144.569 172.044 144.537 172.044C144.537 172.044 144.505 172.044 144.505 172.076C144.473 172.108 144.441 172.108 144.377 172.141C144.377 172.141 144.344 172.141 144.344 172.173C144.312 172.205 144.248 172.237 144.216 172.269L140.687 175.541C134.238 181.765 119.512 195.208 105.428 202.074C87.2045 210.929 76.9059 203.935 67.0563 190.717C65.8051 189.048 64.3934 186.899 62.8855 184.428C64.2972 184.3 65.5163 183.755 66.3505 182.856C67.2488 181.894 67.6018 180.578 67.2809 179.295C66.7355 177.081 64.4897 174.964 62.3401 172.911C60.4793 171.146 58.2014 168.964 58.7468 168.034C58.8431 167.873 58.9393 167.809 59.1318 167.745C60.5756 167.424 64.1047 169.798 66.4468 171.371C68.2434 172.59 69.6551 173.52 70.6497 173.841C72.0292 174.258 73.6975 173.745 74.9809 172.526C76.3284 171.242 76.9059 169.478 76.5209 167.97C75.5263 163.991 69.2701 160.206 59.7735 154.431C50.3411 148.688 40.7482 141.758 40.652 141.694C40.5557 141.63 40.4274 141.565 40.299 141.533C36.6737 134.058 33.8503 128.026 32.5991 125.331C35.3903 124.946 39.8178 122.54 43.4753 120.294C49.7956 116.38 56.0198 111.439 60.351 106.884L95.0649 151.992C95.1611 152.121 95.2895 152.217 95.4178 152.281C96.252 153.564 97.9844 156.163 99.9736 158.762C103.92 163.863 106.936 166.366 109.149 166.43C109.214 166.43 109.246 166.43 109.31 166.43C111.235 166.43 112.133 165.531 112.582 164.761C113.866 162.484 112.358 158.666 111.427 157.19C111.106 156.677 110.657 156.131 110.208 155.522C108.668 153.564 106.743 151.126 107.545 148.56L107.609 148.335C108.283 146.25 109.599 141.982 103.535 137.587C106.519 132.614 110.529 126.711 115.726 120.647C123.041 112.113 132.153 104.83 142.099 99.6007C149.863 95.4941 158.108 92.6066 166.674 90.9703C166.546 93.3124 166.321 98.7986 166.225 104.317C165.968 119.556 166.995 120.006 167.829 120.358C168.984 120.84 171.006 120.391 174.246 119.588C175.754 119.236 178.128 118.626 179.058 118.69C178.866 119.588 177.775 121.77 177.037 123.246C175.08 127.192 173.925 129.695 174.503 131.106C175.593 133.705 190.416 141.565 201.324 141.565C202.062 141.565 202.768 141.533 203.442 141.437L202.928 146.763C202.896 146.859 202.864 146.923 202.864 147.019L202.672 149.073C202.287 152.185 201.452 154.11 200.682 155.971C199.977 157.671 199.303 159.275 199.078 161.457C198.757 164.505 199.078 167.039 199.399 169.734C199.72 172.301 200.073 175.156 199.912 178.974L199.592 182.375C199.367 184.14 198.982 186.61 198.34 188.343C197.763 189.85 197.346 190.813 197.025 191.519C196.351 193.059 196.095 193.604 195.806 195.946C195.613 197.454 195.966 198.962 196.351 200.695C196.832 202.716 197.346 205.026 197.185 208.074C197.121 208.459 196.672 211.154 195.581 213.849C194.555 216.351 194.811 219.303 195.036 222.415C195.196 224.308 195.357 226.265 195.26 228.286L195.068 230.371C195.068 230.468 195.068 230.596 195.1 230.692L193.303 248.819C193.239 249.332 193.656 249.814 194.17 249.878C194.202 249.878 194.234 249.878 194.266 249.878C194.747 249.878 195.164 249.493 195.228 249.012L201.164 186.931L201.581 182.6V182.568C201.613 182.471 201.645 182.375 201.677 182.247C201.709 181.798 201.773 181.38 201.805 180.963L203.602 161.168L205.463 141.405C205.816 141.437 206.265 141.437 206.81 141.437C210.404 141.437 217.751 140.699 226.092 135.694C227.696 134.732 228.466 132.839 228.017 131.042C227.215 127.77 227.376 126.647 227.44 126.358C227.921 126.262 228.916 126.262 229.91 126.294C233.118 126.294 237.546 126.294 239.278 124.016C241.203 121.481 245.887 104.477 247.203 99.6007C250.957 101.333 264.72 108.359 276.463 122.861C282.302 130.048 287.018 140.378 290.194 148.592C286.761 150.966 285.478 156.709 286.312 161.136C286.858 163.927 284.868 165.981 282.783 168.194C281.788 169.253 280.73 170.344 280.024 171.531C278.644 173.809 278.42 176.183 279.446 177.723C279.896 178.365 280.89 179.359 282.976 179.359C283.328 179.359 283.745 179.327 284.163 179.263C288.75 178.557 296.964 169.702 298.055 168.515L338.864 133.545C339.634 135.277 342.04 140.154 347.527 146.185C352.628 151.8 357.44 154.334 359.59 155.233C358.082 157.222 354.425 162.484 349.805 168.964ZM356.446 151.254C354.296 149.875 351.633 147.789 348.874 144.742C342.586 137.812 340.468 132.39 340.34 132.069L344.703 128.347C345.73 130.176 348.265 134.058 353.237 138.742C357.184 142.432 359.686 143.907 361.226 144.453L356.446 151.254ZM380.187 132.005C379.963 132.005 379.77 132.005 379.578 131.94C374.476 130.625 368.092 129.085 366.712 129.406C364.499 129.887 360.167 136.721 358.018 140.314C357.055 139.576 355.9 138.614 354.553 137.362C349.387 132.518 346.949 128.508 346.179 127.064C347.591 125.748 351.858 121.995 356.285 120.391C361.932 118.337 367.514 119.749 370.883 121.77C371.781 122.316 373.129 123.406 374.573 124.593C377.941 127.353 380.251 129.149 381.856 129.278C382.369 129.31 383.299 129.342 384.486 129.374C387.631 129.47 394.945 129.663 396.293 130.561C396.774 130.882 397.063 131.17 397.255 131.427L380.187 132.005Z" fill="#1A1A1A"/>
<path d="M202.968 245.933L211.021 287.545C211.021 287.545 220.614 314.591 221.641 314.591C222.667 314.591 241.5 324.858 241.5 324.858L271.305 323.478L276.791 322.098C276.791 322.098 282.598 320.206 282.085 309.779C281.572 299.319 275.059 271.086 275.059 271.086L285.518 269.546C285.518 269.546 281.411 256.2 276.599 250.2C271.819 244.201 265.113 238.907 265.113 238.907C265.113 238.907 241.981 238.554 231.554 240.287C221.127 241.987 202.968 245.933 202.968 245.933Z" fill="#FC9F5B"/>
<path d="M282.085 309.778C281.989 307.596 281.604 304.613 281.091 301.276C274.578 295.052 264.215 294.057 255.36 291.234C251.446 289.983 247.147 287.705 246.345 283.662C245.639 280.229 247.885 276.732 250.868 274.872C253.852 273.011 257.413 272.433 260.878 271.888C252.248 271.695 243.874 266.819 239.447 259.44C236.976 255.333 236.11 250.328 237.137 245.644C237.586 243.687 238.709 241.537 239.383 239.388C236.431 239.58 233.736 239.869 231.554 240.222C221.095 241.922 202.968 245.868 202.968 245.868L211.021 287.48C211.021 287.48 220.614 314.526 221.641 314.526C222.667 314.526 241.5 324.793 241.5 324.793L271.305 323.413L276.791 322.034C276.759 322.13 282.598 320.237 282.085 309.778Z" fill="white"/>
<path d="M235.876 270.219C234.433 270.219 232.989 269.161 232.347 267.524C231.994 266.562 231.93 265.567 232.219 264.669C232.54 263.707 233.181 262.969 234.048 262.648C234.914 262.327 235.909 262.423 236.775 262.937C237.577 263.418 238.251 264.188 238.603 265.15C239.373 267.204 238.603 269.385 236.871 270.059C236.582 270.155 236.229 270.219 235.876 270.219ZM235.139 264.348C235.01 264.348 234.914 264.38 234.786 264.412C234.369 264.573 234.176 264.99 234.08 265.247C233.919 265.728 233.951 266.305 234.176 266.851C234.561 267.877 235.524 268.519 236.261 268.23C236.999 267.942 237.256 266.851 236.871 265.824C236.679 265.279 236.293 264.83 235.876 264.573C235.684 264.477 235.427 264.348 235.139 264.348Z" fill="#1A1A1A"/>
<path d="M274.925 265.92C273.482 265.92 272.038 264.861 271.396 263.225C270.626 261.171 271.396 258.99 273.129 258.316C274.861 257.642 276.914 258.765 277.684 260.818C278.454 262.872 277.684 265.053 275.952 265.727C275.631 265.855 275.278 265.92 274.925 265.92ZM274.187 260.08C274.059 260.08 273.931 260.113 273.834 260.145C273.097 260.433 272.84 261.524 273.225 262.551C273.61 263.578 274.572 264.219 275.31 263.93C276.048 263.642 276.305 262.551 275.92 261.524C275.567 260.658 274.829 260.08 274.187 260.08Z" fill="#1A1A1A"/>
<path d="M286.699 269.706C286.571 269.289 283.844 259.279 277.524 250.328C273.898 245.195 270.626 241.954 268.508 240.093C266.776 238.618 264.594 237.783 262.316 237.815C256.766 237.88 245.858 238.104 234.981 239.067C216.983 240.639 202.385 246.189 202.064 246.318C202.064 246.318 202.032 246.318 202.032 246.35C202 246.382 201.936 246.382 201.904 246.414C201.872 246.446 201.84 246.446 201.84 246.478C201.807 246.51 201.775 246.51 201.775 246.542C201.743 246.574 201.743 246.606 201.711 246.606C201.679 246.638 201.679 246.638 201.647 246.67C201.615 246.703 201.615 246.735 201.583 246.767C201.583 246.799 201.551 246.799 201.551 246.831C201.551 246.863 201.519 246.895 201.519 246.927C201.519 246.959 201.487 246.991 201.487 247.023C201.487 247.087 201.455 247.12 201.455 247.184C201.455 247.248 201.455 247.312 201.455 247.376C201.487 247.505 203.412 259.343 206.588 273.331C210.534 290.656 214.544 303.49 218.523 311.542C218.555 311.639 218.619 311.703 218.651 311.799C218.715 311.927 218.779 312.056 218.844 312.184C218.908 312.312 218.972 312.473 219.068 312.601C219.1 312.697 219.164 312.794 219.197 312.858C219.325 313.082 219.453 313.307 219.549 313.532C219.806 314.013 220.063 314.462 220.319 314.911C220.352 314.975 220.416 315.039 220.448 315.104C220.672 315.489 220.897 315.874 221.154 316.259C221.186 316.291 221.186 316.323 221.218 316.355C228.565 327.905 237.356 329.798 243.676 329.798C245.473 329.798 247.109 329.637 248.392 329.509C248.649 329.477 248.873 329.477 249.098 329.445L249.611 329.413C254.713 328.964 268.091 327.744 275.984 323.734H276.016C276.24 323.638 276.433 323.509 276.657 323.381C276.689 323.349 276.721 323.349 276.754 323.317C276.754 323.317 276.754 323.317 276.786 323.317C278.486 322.354 279.866 321.264 280.796 320.012C283.523 316.323 283.459 306.858 280.636 291.972C278.967 283.181 276.786 274.968 275.984 272.016L285.929 270.957C286.218 270.925 286.475 270.765 286.635 270.54C286.796 270.316 286.796 269.963 286.699 269.706ZM279.256 318.825C278.711 319.563 277.973 320.237 277.042 320.879C276.721 319.403 276.016 318.216 274.925 317.349C273 315.809 269.727 314.687 258.947 316.708C250.927 318.216 245.055 315.745 241.462 309.297C240.564 307.66 239.73 305.543 238.831 303.297C236.457 297.298 233.794 290.496 228.308 290.496C228.244 290.496 228.148 290.496 228.084 290.496C224.586 290.624 223.592 293.383 222.79 295.597C222.084 297.522 221.603 298.709 220.319 298.87C220.255 298.87 220.191 298.87 220.127 298.87C216.854 298.87 212.716 288.122 211.336 284.496C207.069 268.262 204.182 251.74 203.54 247.89C204.855 247.569 207.615 247.184 209.187 248.82L224.202 280.005C224.362 280.326 224.715 280.55 225.068 280.55C225.1 280.55 225.132 280.55 225.164 280.55L274.957 275.641C275.984 279.588 277.492 285.748 278.743 292.26C282.144 310.163 280.892 316.579 279.256 318.825ZM274.861 270.155C274.732 270.123 274.572 270.123 274.444 270.187C274.412 270.187 274.379 270.219 274.347 270.219L227.378 275.224C225.196 271.439 212.812 250.135 210.662 247.665C210.053 246.991 209.315 246.542 208.577 246.221C214.416 244.457 224.137 241.986 235.174 241.024C245.986 240.061 256.83 239.837 262.348 239.773C264.145 239.74 265.91 240.382 267.257 241.569C269.31 243.334 272.454 246.478 275.951 251.451C280.86 258.445 283.619 266.305 284.518 269.129L274.861 270.155Z" fill="#1A1A1A"/>
</svg>
