<svg width="72" height="72" viewBox="0 0 72 72" fill="none" xmlns="http://www.w3.org/2000/svg">
<path d="M43.0594 8.64C42.8625 8.64 42.6994 8.80312 42.6994 9V9.36H17.4994C16.3125 9.36 15.3394 10.3275 15.3394 11.52V57.6C15.3394 58.7925 16.3125 59.76 17.4994 59.76H18.9394V64.8C18.9394 64.9406 19.0237 65.0644 19.1475 65.1262C19.2769 65.1881 19.4231 65.1656 19.53 65.0756L21.4594 63.4669L23.3887 65.0756C23.4562 65.1319 23.5406 65.16 23.6194 65.16C23.67 65.16 23.7262 65.1487 23.7712 65.1262C23.9006 65.07 23.9794 64.9406 23.9794 64.8V59.76H42.6994V60.12C42.6994 60.3169 42.8625 60.48 43.0594 60.48H45.9394C46.1419 60.48 46.2994 60.3169 46.2994 60.12V59.76H47.745C51.7106 59.76 54.945 56.5312 54.945 52.56V16.56C54.9394 12.5887 51.7106 9.36 47.7394 9.36H46.2994V9C46.2994 8.80312 46.1419 8.64 45.9394 8.64H43.0594ZM43.4194 9.36H45.5794V59.76H43.4194V9.36ZM44.4994 10.08C44.3025 10.08 44.1394 10.2431 44.1394 10.44V58.68C44.1394 58.8769 44.3025 59.04 44.4994 59.04C44.7019 59.04 44.8594 58.8769 44.8594 58.68V10.44C44.8594 10.2431 44.7019 10.08 44.4994 10.08ZM17.4994 10.8H20.3794V20.88H16.7794V11.52C16.7794 11.1206 17.1056 10.8 17.4994 10.8ZM21.0994 10.8H42.6994V20.88H21.0994V10.8ZM46.2994 10.8H47.7394C50.9175 10.8 53.4994 13.3819 53.4994 16.56V20.88H46.2994V10.8ZM16.7794 21.6H42.6994V36.72H16.7794V21.6ZM46.2994 21.6H53.4994V36.72H46.2994V21.6ZM19.2994 25.2C19.1025 25.2 18.9394 25.3631 18.9394 25.56C18.9394 25.7569 19.1025 25.92 19.2994 25.92H37.2994C37.5019 25.92 37.6594 25.7569 37.6594 25.56C37.6594 25.3631 37.5019 25.2 37.2994 25.2H19.2994ZM19.2994 28.08C19.1025 28.08 18.9394 28.2431 18.9394 28.44C18.9394 28.6369 19.1025 28.8 19.2994 28.8H37.2994C37.5019 28.8 37.6594 28.6369 37.6594 28.44C37.6594 28.2431 37.5019 28.08 37.2994 28.08H19.2994ZM16.7794 37.44H20.3794V52.92C20.3794 53.1169 20.5425 53.28 20.7394 53.28C20.9419 53.28 21.0994 53.1169 21.0994 52.92V37.44H42.6994V58.32H21.0994V57.96C21.0994 57.7631 20.9419 57.6 20.7394 57.6C20.5425 57.6 20.3794 57.7631 20.3794 57.96V58.32H17.4994C17.1056 58.32 16.7794 57.9994 16.7794 57.6V37.44ZM46.2994 37.44H53.4994V52.56C53.4994 55.7381 50.9175 58.32 47.7394 58.32H46.2994V37.44ZM20.7394 54C20.5425 54 20.3794 54.1631 20.3794 54.36V56.52C20.3794 56.7169 20.5425 56.88 20.7394 56.88C20.9419 56.88 21.0994 56.7169 21.0994 56.52V54.36C21.0994 54.1631 20.9419 54 20.7394 54ZM19.6594 59.76H23.2594V64.035L21.69 62.7244C21.6225 62.6681 21.5437 62.64 21.4594 62.64C21.3806 62.64 21.2962 62.6681 21.2287 62.7244L19.6594 64.035V59.76Z" fill="#068466"/>
</svg>
